<svg width="32" height="32" viewBox="0 0 32 32" fill="none" xmlns="http://www.w3.org/2000/svg">
<g clip-path="url(#clip0_4190_8249)">
<path d="M15.8937 0H16.1155C16.5064 0.0629167 16.7843 0.261875 16.9493 0.596875C17.4989 1.71271 18.0505 2.83 18.6043 3.94875C18.6139 3.96875 18.6297 3.98042 18.6518 3.98375C19.8122 4.15375 20.9772 4.32229 22.1468 4.48938C22.3455 4.51813 22.5574 4.54875 22.7274 4.65C23.0724 4.855 23.2503 5.15667 23.2612 5.555C23.2705 5.9175 23.0905 6.17937 22.8349 6.4275C21.9687 7.26625 21.108 8.10375 20.253 8.94C20.2439 8.94917 20.2403 8.96021 20.2424 8.97313C20.4233 10.0773 20.6141 11.1879 20.8149 12.305C20.8828 12.6833 20.9016 12.9383 20.8712 13.07C20.7878 13.4279 20.5857 13.6785 20.2649 13.8219C19.9137 13.9787 19.5812 13.9194 19.2437 13.7394C18.1332 13.1481 17.0662 12.5854 16.0424 12.0513C16.0178 12.0383 15.9935 12.0383 15.9693 12.0513C14.9676 12.5746 13.9343 13.1181 12.8693 13.6819C12.7149 13.7638 12.543 13.8594 12.3724 13.8894C11.9624 13.9619 11.6237 13.8417 11.3562 13.5288C11.0987 13.2269 11.0887 12.89 11.1612 12.4844C11.3662 11.3402 11.5676 10.1708 11.7655 8.97625C11.768 8.96083 11.7637 8.94771 11.7524 8.93688C10.8941 8.09771 10.0191 7.24542 9.12741 6.38C8.98033 6.2375 8.87992 6.09958 8.82617 5.96625C8.55804 5.30312 8.97179 4.61938 9.68304 4.51875C10.9014 4.34542 12.126 4.16771 13.3568 3.98563C13.3662 3.98429 13.3752 3.98064 13.3831 3.97498C13.3909 3.96933 13.3973 3.96183 13.4018 3.95312C13.9605 2.82104 14.5205 1.68646 15.0818 0.549375C15.2326 0.243958 15.5032 0.0608333 15.8937 0Z" fill="white"/>
<path d="M21.2331 31.9998H10.7656C10.766 27.0686 10.766 22.1371 10.7656 17.2055C10.7656 16.9351 10.7892 16.7405 10.8363 16.6217C11.0194 16.1592 11.4125 15.948 11.8969 15.9492C14.5202 15.9559 17.2246 15.9544 20.01 15.9448C20.2646 15.944 20.4621 15.9744 20.6025 16.0361C20.8638 16.1507 21.0494 16.3415 21.1594 16.6086C21.2077 16.7257 21.2319 16.9273 21.2319 17.2136C21.2352 22.1423 21.2356 27.0711 21.2331 31.9998Z" fill="white"/>
<path d="M8.67063 31.9998H1.04313C0.545209 31.9023 0.296459 31.6107 0.296876 31.1248C0.297709 28.0378 0.297709 24.8046 0.296876 21.4255C0.296876 21.1221 0.322709 20.9101 0.374376 20.7892C0.569376 20.3305 0.955 20.1361 1.44688 20.1367C3.81021 20.1396 6.20542 20.1398 8.6325 20.1373C8.65667 20.1369 8.66875 20.149 8.66875 20.1736L8.67063 31.9998Z" fill="white"/>
<path d="M30.9476 32.0002H23.3289L23.3301 24.3608C23.3301 24.3371 23.342 24.3252 23.3657 24.3252C25.7307 24.3273 28.1489 24.3273 30.6201 24.3252C31.1939 24.3246 31.7014 24.7521 31.702 25.3489C31.7032 27.2102 31.7039 29.1346 31.7039 31.1221C31.7032 31.5908 31.4289 31.9114 30.9476 32.0002Z" fill="white"/>
</g>
<defs>
<clipPath id="clip0_4190_8249">
<rect width="32" height="32" fill="white"/>
</clipPath>
</defs>
</svg>
