<svg xmlns="http://www.w3.org/2000/svg" width="244" height="60" viewBox="0 0 244 60" fill="none">
  <path d="M0 56.803H59.6298L66.7975 10.499H0V56.803ZM49.3999 27.0891L51.9574 16.1861H60.5721L58.5866 19.3493H53.2361L53.8755 20.5607L53.0679 24.0941H57.9473L59.2597 27.2573H49.3662L49.3999 27.0891ZM48.3903 16.1861L48.2221 16.388L31.9013 35.199H38.3623L39.6747 37.319L41.7947 28.5697H46.3713L44.756 35.1653H51.7218L49.0297 40.1793H43.5446L40.9534 50.6112H36.4105L38.9344 40.1793H24.3298L24.3634 40.0447L25.3393 35.4345L25.373 35.4009L42.4341 16.1524H48.3903V16.1861ZM5.68704 50.1064L10.7684 28.9062H7.90802L12.1481 23.8922H32.7426L28.267 28.9062H13.9989L14.2681 29.4783L14.9075 30.5888V30.6224L13.9652 35.199H23.4548L22.378 40.1457H12.8211L11.475 45.6308H26.3488L28.2333 50.6449H5.55244L5.68704 50.1064Z" fill="white"/>
  <path d="M86.147 37.1508H77.9025L78.3063 32.5406L76.2199 31.1946L92.2042 31.1273L93.0118 27.1228H90.387H77.0275H76.018L73.9316 28.7381L73.0567 38.4632L76.3545 41.088H85.9114L84.8346 46.5395H70.7684L69.2205 50.6113L84.1952 50.645H87.2238L89.4448 48.7269L90.7572 41.0544L86.147 37.1508Z" fill="white"/>
  <path d="M94.6606 25.2383H98.7324V0.168213L94.6606 7.2686V25.2383Z" fill="white"/>
  <path d="M194.537 27.0891H190.466V50.4767H194.537V27.0891Z" fill="white"/>
  <path d="M169.164 30.9254H175.255V50.5777H179.293V30.9254H188.278V27.1228H166.876L169.164 30.9254Z" fill="white"/>
  <path d="M124.408 34.1897V4.07187L120.337 0.0673828V20.0898L116.467 14.9075L114.077 18.8447L124.408 34.1897Z" fill="white"/>
  <path d="M74.8066 25.2384H79.013L78.9457 15.5132H85.4067L87.8632 11.4414H78.9457V6.0236L77.7342 4.67755L77.465 4.30739H93.4157L95.8722 0.235596H72.3501L68.8503 4.30739H74.7393L74.8066 25.2384Z" fill="white"/>
  <path d="M123.298 46.6404V45.2943L123.264 36.4777L119.26 30.4878V46.6404V48.7267V50.5775H136.893L134.773 46.6404H123.298Z" fill="white"/>
  <path d="M170.611 21.3011H159.136V18.2388V4.10532L155.064 0.10083V19.5849V21.6712V25.2719H172.731L170.611 21.3011Z" fill="white"/>
  <path d="M197.196 38.8671L209.108 50.7796L221.021 38.8671L209.108 26.9546L197.196 38.8671ZM209.108 45.1935L202.748 38.8671L209.075 32.5407L215.401 38.8671L209.108 45.1935Z" fill="white"/>
  <path d="M209.072 37.4963L206.193 40.3755L209.072 43.2547L211.951 40.3755L209.072 37.4963Z" fill="white"/>
  <path d="M239.462 27.1902V45.1936L231.318 31.1274L228.996 27.1902H223.713H223.679L220.281 31.1274H223.713V48.2222V50.5441L227.751 47.5491V32.5071L238.452 50.5441H243.5V33.25L239.462 27.1902Z" fill="white"/>
  <path d="M153.012 27.1902H148.57L140.157 43.7802L131.812 27.1902H127.235L140.224 52.6978L152.44 28.368L153.012 27.1902Z" fill="white"/>
  <path d="M143.69 50.6785H148.301L149.95 47.448H162.266L159.742 43.3762H151.834L156.781 34.0212L172.664 58.452V58.4856L178.317 59.9999L156.444 27.2573L143.69 50.6785Z" fill="white"/>
  <path d="M106.338 27.1228L90.5889 50.4767H95.3673L109.804 29.0073L111.385 41.1553H105.395L101.862 44.9916H111.856L112.597 50.544H116.769L113.976 27.1228H106.338Z" fill="white"/>
  <path d="M131.273 18.0034H141.301L137.364 14.1335H131.273V1.95176L148.637 25.2384H153.315L134.302 0H127.168V25.2384H131.273V18.0034Z" fill="white"/>
  <path d="M104.891 6.46106L108.626 11.5424L107.852 12.7538L111.991 18.9456L116.231 12.7875L111.924 6.59566L111.183 7.73981L105.665 0.235596H100.819V24.9019L104.891 21.9069V6.46106Z" fill="white"/>
</svg>