<svg width="487" height="120" viewBox="0 0 487 120" fill="none" xmlns="http://www.w3.org/2000/svg">
<path d="M0 113.607H119.26L133.595 20.999H0V113.607ZM98.7998 54.1791L103.915 32.3731H121.144L117.173 38.6995H106.472L107.751 41.1224L106.136 48.1892H115.895L118.519 54.5156H98.7325L98.7998 54.1791ZM96.7807 32.3731L96.4442 32.7769L63.8026 70.3989H76.7246L79.3494 74.639L83.5895 57.1404H92.7426L89.5121 70.3316H103.444L98.0595 80.3597H87.0892L81.9069 101.223H72.8211L77.8688 80.3597H48.6596L48.7269 80.0905L50.6786 70.8701L50.7459 70.8028L84.8682 32.3058H96.7807V32.3731ZM11.3741 100.214L21.5367 57.8134H15.816L24.2961 47.7854H65.4851L56.5339 57.8134H27.9978L28.5362 58.9575L29.8149 61.1785V61.2458L27.9305 70.3989H46.9097L44.756 80.2924H25.6422L22.9501 91.2626H52.6977L56.4666 101.291H11.1049L11.3741 100.214Z" fill="white"/>
<path d="M172.294 74.3022H155.805L156.613 65.0818L152.44 62.3897L184.408 62.2551L186.024 54.2461H180.774H154.055H152.036L147.863 57.4766L146.113 76.927L152.709 82.1766H171.823L169.669 93.0795H141.537L138.441 101.223L168.39 101.29H174.448L178.89 97.4542L181.514 82.1093L172.294 74.3022Z" fill="white"/>
<path d="M189.321 50.4772H197.465V0.336914L189.321 14.5377V50.4772Z" fill="white"/>
<path d="M389.075 54.1787H380.931V100.954H389.075V54.1787Z" fill="white"/>
<path d="M338.329 61.8513H350.51V101.156H358.586V61.8513H376.556V54.2461H333.752L338.329 61.8513Z" fill="white"/>
<path d="M248.817 68.3798V8.14423L240.673 0.135254V40.1801L232.933 29.8156L228.155 37.69L248.817 68.3798Z" fill="white"/>
<path d="M149.613 50.4773H158.026L157.891 31.0269H170.813L175.726 22.8834H157.891V12.0477L155.468 9.3556L154.93 8.61527H186.831L191.744 0.47168H144.7L137.701 8.61527H149.479L149.613 50.4773Z" fill="white"/>
<path d="M246.596 93.2817V90.5896L246.528 72.9564L238.519 60.9766V93.2817V97.4544V101.156H273.786L269.546 93.2817H246.596Z" fill="white"/>
<path d="M341.223 42.6031H318.273V36.4786V8.21161L310.129 0.202637V39.1707V43.3434V50.5448H345.463L341.223 42.6031Z" fill="white"/>
<path d="M394.392 77.7347L418.217 101.56L442.042 77.7347L418.217 53.9097L394.392 77.7347ZM418.217 90.3875L405.496 77.7347L418.149 65.0819L430.802 77.7347L418.217 90.3875Z" fill="white"/>
<path d="M418.144 74.9931L412.385 80.7515L418.144 86.5098L423.902 80.7515L418.144 74.9931Z" fill="white"/>
<path d="M478.923 54.3809V90.3876L462.636 62.2552L457.992 54.3809H447.426H447.359L440.561 62.2552H447.426V96.4448V101.089L455.502 95.0988V65.0146L476.904 101.089H487V66.5005L478.923 54.3809Z" fill="white"/>
<path d="M306.024 54.3809H297.14L280.314 87.5609L263.623 54.3809H254.47L280.449 105.396L304.879 56.7364L306.024 54.3809Z" fill="white"/>
<path d="M287.381 101.358H296.601L299.899 94.8965H324.532L319.484 86.7529H303.668L313.561 68.0429L345.328 116.904V116.972L356.635 120L312.888 54.5151L287.381 101.358Z" fill="white"/>
<path d="M212.675 54.2461L181.178 100.954H190.735L219.607 58.015L222.771 82.3112H210.791L203.724 89.9837H223.713L225.193 101.089H233.539L227.953 54.2461H212.675Z" fill="white"/>
<path d="M262.546 36.0072H282.602L274.728 28.2675H262.546V3.90402L297.274 50.4772H306.629L268.604 0.000488281H254.335V50.4772H262.546V36.0072Z" fill="white"/>
<path d="M209.782 12.9226L217.252 23.0853L215.704 25.5082L223.982 37.8918L232.462 25.5755L223.848 13.1918L222.367 15.4801L211.329 0.47168H201.638V49.8043L209.782 43.8144V12.9226Z" fill="white"/>
</svg>
